<?xml version="1.0" encoding="UTF-8"?>
<svg width="367px" height="367px" viewBox="0 0 367 367" version="1.1" xmlns="http://www.w3.org/2000/svg" xmlns:xlink="http://www.w3.org/1999/xlink">
    <!-- Generator: Sketch 44.1 (41455) - http://www.bohemiancoding.com/sketch -->
    <title>ICON</title>
    <desc>Created with Sketch.</desc>
    <defs></defs>
    <g id="Page-1" stroke="none" stroke-width="1" fill="none" fill-rule="evenodd">
        <g id="Artboard" transform="translate(-42.000000, -42.000000)">
            <g id="ICON" transform="translate(42.000000, 42.000000)">
                <path d="M179.113281,366.792969 C278.332031,366.792969 366.179688,282.916208 366.179688,185.990234 C366.179688,89.0642608 281.425974,19.4921875 184.5,19.4921875 C87.5740264,19.4921875 0.96875,89.0642608 0.96875,185.990234 C0.96875,282.916208 79.8945313,366.792969 179.113281,366.792969 Z" id="Oval-2" fill="#B7BCBF"></path>
                <path d="M178.963568,349.246133 C272.949154,349.246133 355.131743,270.644183 355.131743,178.447091 C357.757812,66.640625 272.949154,0.4453125 178.963568,0.4453125 C84.977982,0.4453125 8.1640625,34.8828125 9.53125,178.447091 C9.53125,269.093402 84.977982,349.246133 178.963568,349.246133 Z" id="Oval-2" fill="#FFFFFF"></path>
                <path d="M183.393501,327.975146 C270.930634,327.975146 341.893501,257.012279 341.893501,169.475146 C341.893501,162.522952 341.515011,156.060849 340.774299,150.054843 C340.339212,146.526971 322.310304,152.491076 319.432292,150.054843 C316.55428,147.618609 250.089902,130.207152 235.658854,120.072917 C219.067516,108.421613 243.572166,72.1002604 194.35026,72.1002604 C185.407148,72.1002604 163.142572,0 149.470052,0 C128.927968,0 86.1046169,0 21,0 C21,69.4698494 21,114.850926 21,136.143229 C21,138.105652 28.2825879,139.231526 30.2005208,141.092448 C32.1184537,142.95337 74.2395833,162.036249 74.2395833,169.475146 C74.2395833,252.040601 34.1983154,253.384216 109.835938,260.821615 C185.47356,268.259014 172.983518,327.636992 174.97624,327.747213 C177.711865,327.898525 180.517095,327.975146 183.393501,327.975146 Z" id="Oval" fill="#00BA69"></path>
                <path d="M149,0.0212390663 L190.389323,0.0212390663 C221.31901,-0.605714059 252.620117,12.6475411 284.292643,39.7810047 C315.965169,66.9144682 335.1875,104.55607 341.959635,152.705809 C284.106337,160.192301 237.483073,150.485026 202.089844,123.583984 C166.696615,96.6829427 149,55.4953609 149,0.0212390663 Z" id="Path-3" fill="#9CD919"></path>
                <path d="M21,136 L21,172.656925 C23.131044,213.880217 37.3940649,248.644966 63.7890625,276.951172 C90.1840601,305.257377 127.44643,322.42144 175.576172,328.443359 C180.804967,277.134637 170.839473,234.797397 145.679688,201.431641 C120.519902,168.065884 78.9600065,146.255337 21,136 Z" id="Path-2" fill="#009B37"></path>
            </g>
        </g>
    </g>
</svg>