<?xml version="1.0" standalone="no"?>
<!DOCTYPE svg PUBLIC "-//W3C//DTD SVG 20010904//EN"
 "http://www.w3.org/TR/2001/REC-SVG-20010904/DTD/svg10.dtd">
<svg version="1.0" xmlns="http://www.w3.org/2000/svg"
 width="367.000000pt" height="367.000000pt" viewBox="0 0 367.000000 367.000000"
 preserveAspectRatio="xMidYMid meet">
<metadata>
Created by potrace 1.11, written by Peter Selinger 2001-2013
</metadata>
<g transform="translate(0.000000,367.000000) scale(0.100000,-0.100000)"
fill="#000000" stroke="none">
<path d="M210 3201 c0 -374 -3 -479 -14 -513 -11 -36 -20 -67 -31 -108 0 -3
-7 -36 -14 -75 -8 -38 -29 -112 -47 -162 -19 -51 -35 -103 -38 -115 -2 -13 -9
-43 -16 -68 -54 -197 -50 -510 9 -760 153 -652 660 -1176 1295 -1340 114 -29
141 -34 259 -48 74 -9 314 -8 387 2 653 89 1220 498 1495 1079 122 258 168
474 161 762 -2 88 -7 174 -10 190 -5 24 -21 95 -41 185 -22 100 -84 245 -169
395 -40 72 -92 164 -115 205 -123 220 -323 424 -558 568 -132 81 -269 141
-463 202 -215 68 -136 63 -1157 67 l-933 4 0 -470z"/>
</g>
</svg>
